<svg width="71" height="50" viewBox="0 0 71 50" fill="none" xmlns="http://www.w3.org/2000/svg">
<g style="mix-blend-mode:exclusion">
<path fill-rule="evenodd" clip-rule="evenodd" d="M0.598334 14.2044V0.468933H9.83856V2.7934H3.38385V14.2044H0.598334ZM11.4302 31.7555C10.2264 33.0874 8.62549 33.7534 6.62761 33.7534C4.62972 33.7534 3.02245 33.0874 1.80578 31.7555C0.601928 30.4108 0 28.6946 0 26.6071C0 24.5196 0.601928 22.8034 1.80578 21.4587C3.02245 20.114 4.62972 19.4416 6.62761 19.4416C8.62549 19.4416 10.2264 20.114 11.4302 21.4587C12.6341 22.8034 13.236 24.5196 13.236 26.6071C13.236 28.6946 12.6341 30.4108 11.4302 31.7555ZM3.82288 30.1034C4.48884 31.0127 5.43015 31.4674 6.64682 31.4674C7.86348 31.4674 8.79198 31.0191 9.43233 30.1226C10.0727 29.2133 10.3929 28.0415 10.3929 26.6071C10.3929 25.1727 10.0727 24.0009 9.43233 23.0916C8.79198 22.1823 7.86348 21.7277 6.64682 21.7277C5.43015 21.7277 4.48884 22.1823 3.82288 23.0916C3.16972 24.0009 2.84315 25.1727 2.84315 26.6071C2.84315 28.0287 3.16972 29.1941 3.82288 30.1034ZM30.9535 33.4466V23.5916H33.5661V33.4466H30.9535ZM30.9535 22.0548V19.7111H33.5661V22.0548H30.9535ZM47.9849 32.3519C48.0618 32.9154 48.1642 33.2804 48.2923 33.4469H50.8088V33.3508C50.5783 33.1844 50.4631 32.7297 50.4631 31.9869V26.973C50.4631 24.5525 49.0799 23.3422 46.3136 23.3422C44.9561 23.3422 43.9187 23.6496 43.2015 24.2643C42.4843 24.879 42.1065 25.6539 42.0681 26.5888H44.3926C44.4694 25.6667 45.1033 25.2056 46.2944 25.2056C46.8323 25.2056 47.2421 25.3145 47.5239 25.5322C47.8056 25.7371 47.9465 26.0189 47.9465 26.3774C47.9465 26.7232 47.78 26.9666 47.447 27.1074C47.114 27.2355 46.4865 27.3636 45.5644 27.4917C44.3093 27.671 43.336 27.9975 42.6444 28.4714C41.9528 28.9324 41.607 29.6624 41.607 30.6614C41.607 31.6219 41.9208 32.3647 42.5484 32.8898C43.1759 33.4149 44.0083 33.6774 45.0457 33.6774C45.8269 33.6774 46.4353 33.5622 46.8707 33.3316C47.3061 33.1011 47.6647 32.7745 47.9465 32.3519H47.9849ZM47.3702 31.2953C46.9604 31.6667 46.3968 31.8524 45.6797 31.8524C44.6551 31.8524 44.1428 31.4362 44.1428 30.6037C44.1428 30.1683 44.2965 29.8481 44.6039 29.6432C44.9112 29.4255 45.4363 29.2334 46.1791 29.0669C47.114 28.8492 47.7224 28.6571 48.0041 28.4906V29.9698C48.0041 30.4821 47.7928 30.9239 47.3702 31.2953ZM37.9583 25.1667V23.5914H35.4418V33.4464H38.0544V28.6438C38.0544 27.632 38.3233 26.8892 38.8612 26.4154C39.3991 25.9415 40.1099 25.7494 40.9936 25.8391H41.0512V23.553C40.9103 23.5018 40.7054 23.4762 40.4365 23.4762C39.873 23.4762 39.4055 23.6171 39.0341 23.8988C38.6627 24.1678 38.3233 24.5904 38.016 25.1667H37.9583ZM14.7406 23.5913V33.4463H17.3533V27.7216C17.3533 27.0684 17.5133 26.5498 17.8335 26.1656C18.1665 25.7685 18.5955 25.57 19.1206 25.57C20.1324 25.57 20.6382 26.1335 20.6382 27.2605V33.4463H23.2509V27.7216C23.2509 27.0684 23.4045 26.5498 23.7119 26.1656C24.0321 25.7685 24.4675 25.57 25.0182 25.57C26.03 25.57 26.5359 26.1335 26.5359 27.2605V33.4463H29.1485V26.8187C29.1485 25.7301 28.8603 24.8785 28.284 24.2637C27.7205 23.6362 26.9265 23.3224 25.9019 23.3224C24.6468 23.3224 23.6607 23.8987 22.9435 25.0513H22.9051C22.6617 24.5263 22.2967 24.11 21.8101 23.8027C21.3362 23.4825 20.7919 23.3224 20.1772 23.3224C18.8965 23.3224 17.9424 23.8539 17.3148 24.9169H17.2572V23.5913H14.7406ZM33.3727 48.6087C34.1668 49.2234 35.2682 49.5308 36.6769 49.5308C37.9192 49.5308 38.9181 49.249 39.6738 48.6855C40.4422 48.1092 40.8264 47.3344 40.8264 46.361C40.8264 45.9128 40.7495 45.5222 40.5959 45.1892C40.455 44.8434 40.2821 44.5745 40.0772 44.3824C39.8851 44.1775 39.6161 43.9982 39.2703 43.8445C38.9245 43.678 38.6172 43.5627 38.3482 43.4987C38.0921 43.4218 37.7591 43.3386 37.3493 43.249C37.2084 43.2233 37.0163 43.1913 36.773 43.1529C36.5296 43.1017 36.3375 43.0632 36.1967 43.0376C36.0558 42.9992 35.8893 42.9608 35.6972 42.9224C35.5051 42.8711 35.3578 42.8263 35.2554 42.7879C35.1529 42.7367 35.044 42.679 34.9288 42.615C34.8263 42.5382 34.7495 42.4549 34.6982 42.3653C34.6598 42.2628 34.6406 42.154 34.6406 42.0387C34.6406 41.6929 34.7879 41.424 35.0825 41.2319C35.3898 41.0397 35.8061 40.9437 36.3311 40.9437C37.4966 40.9437 38.1305 41.424 38.233 42.3845H40.5959C40.4934 41.3727 40.0772 40.5787 39.3472 40.0024C38.63 39.4133 37.6375 39.1187 36.3696 39.1187C35.1913 39.1187 34.2244 39.3876 33.4688 39.9255C32.726 40.4634 32.3546 41.2447 32.3546 42.2692C32.3546 42.7815 32.4442 43.2233 32.6235 43.5947C32.8156 43.9533 33.0974 44.2415 33.4688 44.4592C33.8402 44.6641 34.1924 44.8242 34.5254 44.9395C34.8711 45.0419 35.313 45.1444 35.8509 45.2468C35.9533 45.2724 36.1326 45.3109 36.3888 45.3621C36.6577 45.4005 36.8434 45.4325 36.9459 45.4582C37.0611 45.4838 37.2212 45.5222 37.4261 45.5734C37.631 45.6246 37.7719 45.6759 37.8488 45.7271C37.9384 45.7783 38.0345 45.8488 38.1369 45.9384C38.2522 46.0153 38.329 46.1049 38.3674 46.2074C38.4187 46.3098 38.4443 46.4251 38.4443 46.5532C38.4443 46.8989 38.2842 47.1743 37.964 47.3792C37.6567 47.5841 37.2148 47.6866 36.6385 47.6866C35.3706 47.6866 34.6534 47.1423 34.4869 46.0537H32.0664C32.1433 47.1295 32.5787 47.9811 33.3727 48.6087ZM27.1027 49.531C25.7708 49.531 24.791 49.0251 24.1635 48.0134H24.1251V49.2429H21.6085V35.5074H24.2211V40.5789H24.2788C24.9063 39.6056 25.822 39.1189 27.0259 39.1189C28.2681 39.1189 29.2863 39.6056 30.0803 40.5789C30.8744 41.5395 31.2714 42.7881 31.2714 44.325C31.2714 45.913 30.8872 47.1809 30.1187 48.1287C29.3503 49.0636 28.345 49.531 27.1027 49.531ZM26.5264 47.341C27.1924 47.341 27.7046 47.0785 28.0632 46.5534C28.4346 46.0283 28.6203 45.2855 28.6203 44.325C28.6203 43.3773 28.4282 42.6281 28.044 42.0774C27.6726 41.5139 27.1347 41.2321 26.4303 41.2321C24.9191 41.2321 24.1635 42.2823 24.1635 44.3826C24.1635 45.2919 24.3748 46.0155 24.7975 46.5534C25.2201 47.0785 25.7964 47.341 26.5264 47.341ZM17.2773 48.1482C17.3541 48.7117 17.4566 49.0767 17.5846 49.2432H20.1012V49.1471C19.8707 48.9807 19.7554 48.526 19.7554 47.7832V42.7693C19.7554 40.3488 18.3723 39.1385 15.606 39.1385C14.2484 39.1385 13.2111 39.4459 12.4939 40.0606C11.7767 40.6753 11.3989 41.4502 11.3605 42.3851H13.6849C13.7618 41.463 14.3957 41.0019 15.5868 41.0019C16.1247 41.0019 16.5345 41.1108 16.8162 41.3285C17.098 41.5334 17.2389 41.8152 17.2389 42.1737C17.2389 42.5195 17.0724 42.7629 16.7394 42.9037C16.4064 43.0318 15.7789 43.1599 14.8568 43.288C13.6017 43.4673 12.6284 43.7938 11.9368 44.2677C11.2452 44.7287 10.8994 45.4587 10.8994 46.4577C10.8994 47.4182 11.2132 48.161 11.8407 48.6861C12.4683 49.2112 13.3007 49.4737 14.3381 49.4737C15.1193 49.4737 15.7276 49.3585 16.1631 49.1279C16.5985 48.8974 16.9571 48.5708 17.2389 48.1482H17.2773ZM16.6625 47.0916C16.2527 47.463 15.6892 47.6487 14.972 47.6487C13.9475 47.6487 13.4352 47.2325 13.4352 46.4C13.4352 45.9646 13.5889 45.6444 13.8962 45.4395C14.2036 45.2218 14.7287 45.0297 15.4715 44.8632C16.4064 44.6455 17.0147 44.4534 17.2965 44.2869V45.7661C17.2965 46.2784 17.0852 46.7202 16.6625 47.0916ZM0.573964 49.2429V35.5074H3.35948V46.9184H9.81419V49.2429H0.573964ZM70.1558 49.2424V35.5069H67.3703V46.9179H60.9155V49.2424H70.1558ZM70.1558 14.2044V0.468933H60.9155V2.7934H67.3703V14.2044H70.1558Z" fill="white" fill-opacity="0.945098"/>
</g>
</svg>
