<svg width="1012" height="465" viewBox="0 0 1012 465" fill="none" xmlns="http://www.w3.org/2000/svg">
<g opacity="0.2" filter="url(#filter0_f_1_2656)">
<path fill-rule="evenodd" clip-rule="evenodd" d="M996.454 4.04165C996.454 3.46636 995.987 3 995.412 3C994.837 3 994.37 3.46636 994.37 4.04165V24.4303H981.812V95.8011H994.37V119.594C994.37 120.17 994.837 120.636 995.412 120.636C995.987 120.636 996.454 120.17 996.454 119.594V95.8011H1009V24.4303H996.454V4.04165ZM507.04 56.8327C507.04 56.2574 506.573 55.791 505.998 55.791C505.423 55.791 504.956 56.2574 504.956 56.8327V179.188H492.396V223.37H504.956V274.344C504.956 274.919 505.423 275.385 505.998 275.385C506.573 275.385 507.04 274.919 507.04 274.344V223.37H519.585V179.188H507.04V56.8327ZM180.789 192.778C180.789 192.203 180.323 191.736 179.747 191.736C179.172 191.736 178.706 192.203 178.706 192.778V213.167H166.141V257.349H178.706V308.331C178.706 308.906 179.172 309.372 179.747 309.372C180.323 309.372 180.789 308.906 180.789 308.331V257.349H193.329V213.167H180.789V192.778ZM17.643 233.557C17.643 232.982 17.1767 232.516 16.6014 232.516C16.0261 232.516 15.5597 232.982 15.5597 233.557L15.5597 253.948H3V298.13H15.5597L15.5597 349.11C15.5597 349.685 16.0261 350.152 16.6014 350.152C17.1767 350.152 17.643 349.685 17.643 349.11L17.643 298.13H30.1889V253.948H17.643L17.643 233.557ZM72.0339 318.512H84.5746V393.282H72.0339V461.257C72.0339 461.832 71.5675 462.298 70.9922 462.298C70.4169 462.298 69.9506 461.832 69.9506 461.257V393.282H57.3857V318.512H69.9506V298.124C69.9506 297.548 70.4169 297.082 70.9922 297.082C71.5675 297.082 72.0339 297.548 72.0339 298.124V318.512ZM126.407 291.329H138.953V335.511H126.407V386.493C126.407 387.068 125.941 387.534 125.365 387.534C124.79 387.534 124.324 387.068 124.324 386.493V335.511H111.764V291.329H124.324V270.94C124.324 270.365 124.79 269.898 125.365 269.898C125.941 269.898 126.407 270.365 126.407 270.94V291.329ZM235.156 213.167H247.702V257.349H235.156V308.331C235.156 308.906 234.69 309.372 234.114 309.372C233.539 309.372 233.073 308.906 233.073 308.331V257.349H220.513V213.167H233.073V192.778C233.073 192.203 233.539 191.736 234.114 191.736C234.69 191.736 235.156 192.203 235.156 192.778V213.167ZM289.542 213.169H302.087V328.721H274.898V213.169H287.458V192.78C287.458 192.205 287.925 191.738 288.5 191.738C289.075 191.738 289.542 192.205 289.542 192.78V213.169ZM343.917 332.118H356.46V376.3H343.917V427.282C343.917 427.857 343.45 428.323 342.875 428.323C342.3 428.323 341.833 427.857 341.833 427.282V376.3H329.271V332.118H341.833V311.729C341.833 311.154 342.3 310.688 342.875 310.688C343.45 310.688 343.917 311.154 343.917 311.729V332.118ZM398.305 332.118H410.846V349.111H398.305L398.306 427.282C398.306 427.857 397.839 428.323 397.264 428.323C396.689 428.323 396.222 427.857 396.222 427.282V349.111H383.657V332.118H396.222V311.729C396.222 311.154 396.689 310.688 397.264 310.688C397.839 310.688 398.305 311.154 398.305 311.729V332.118ZM452.666 240.362H465.212V298.138H452.666V349.112C452.666 349.687 452.2 350.154 451.625 350.154C451.05 350.154 450.583 349.687 450.583 349.112V298.138H438.023V240.362H450.583V233.559C450.583 232.984 451.049 232.518 451.625 232.518C452.2 232.518 452.666 232.984 452.666 233.559V240.362ZM561.426 253.948H573.972V298.13H561.426V349.112C561.426 349.687 560.96 350.154 560.385 350.154C559.81 350.154 559.343 349.687 559.343 349.112V298.13H546.783V253.948H559.343V233.559C559.343 232.984 559.809 232.518 560.385 232.518C560.96 232.518 561.426 232.984 561.426 233.559V253.948ZM615.799 298.126H628.345V318.517H615.799L615.799 393.29C615.799 393.865 615.333 394.331 614.758 394.331C614.183 394.331 613.716 393.865 613.716 393.29V318.517H601.156V298.126H613.716V277.737C613.716 277.162 614.182 276.695 614.758 276.695C615.333 276.695 615.799 277.162 615.799 277.737V298.126ZM670.182 253.948H682.728V298.13H670.182V349.112C670.182 349.687 669.716 350.154 669.141 350.154C668.565 350.154 668.099 349.687 668.099 349.112V298.13H655.539V253.948H668.099V233.559C668.099 232.984 668.565 232.518 669.141 232.518C669.716 232.518 670.182 232.984 670.182 233.559V253.948ZM724.553 192.762H737.099V264.133H724.553V287.926C724.553 288.502 724.087 288.968 723.512 288.968C722.936 288.968 722.47 288.502 722.47 287.926V264.133H709.91V192.762H722.47V172.374C722.47 171.798 722.936 171.332 723.512 171.332C724.087 171.332 724.553 171.798 724.553 172.374V192.762ZM778.927 135.001H791.473V206.371H778.927V230.165C778.927 230.74 778.461 231.206 777.886 231.206C777.31 231.206 776.844 230.74 776.844 230.165V206.371H764.284V135.001H776.844V114.612C776.844 114.037 777.31 113.57 777.886 113.57C778.461 113.57 778.927 114.037 778.927 114.612V135.001ZM833.308 202.96H845.854V223.351H833.308V298.124C833.308 298.699 832.842 299.165 832.266 299.165C831.691 299.165 831.225 298.699 831.225 298.124V223.351H818.665V202.96H831.225V182.571C831.225 181.996 831.691 181.529 832.266 181.529C832.842 181.529 833.308 181.996 833.308 182.571V202.96ZM887.7 138.393H900.244V209.764H887.7V233.557C887.7 234.132 887.234 234.599 886.658 234.599C886.083 234.599 885.617 234.133 885.617 233.557V209.764H873.055V138.393H885.617V118.005C885.617 117.429 886.083 116.963 886.658 116.963C887.234 116.963 887.7 117.429 887.7 118.005V138.393ZM942.061 87.4147H954.62V158.785H942.061V182.579C942.061 183.154 941.595 183.62 941.02 183.62C940.444 183.62 939.978 183.154 939.978 182.579V158.785H927.432V87.4147H939.978V67.026C939.978 66.4507 940.444 65.9844 941.02 65.9844C941.595 65.9844 942.061 66.4507 942.061 67.026V87.4147Z" fill="url(#paint0_linear_1_2656)"/>
</g>
<defs>
<filter id="filter0_f_1_2656" x="0.989252" y="0.989252" width="1010.02" height="463.32" filterUnits="userSpaceOnUse" color-interpolation-filters="sRGB">
<feFlood flood-opacity="0" result="BackgroundImageFix"/>
<feBlend mode="normal" in="SourceGraphic" in2="BackgroundImageFix" result="shape"/>
<feGaussianBlur stdDeviation="1.00537" result="effect1_foregroundBlur_1_2656"/>
</filter>
<linearGradient id="paint0_linear_1_2656" x1="1052.95" y1="11.1411" x2="66.2924" y2="511.303" gradientUnits="userSpaceOnUse">
<stop stop-color="white"/>
<stop offset="0.478601" stop-color="#999999" stop-opacity="0"/>
<stop offset="0.866489" stop-color="white"/>
<stop offset="1" stop-color="#999999" stop-opacity="0"/>
</linearGradient>
</defs>
</svg>
